<svg xmlns="http://www.w3.org/2000/svg" viewBox="0 0 600 600" width="600" height="600" role="img" aria-label="Nova Omega 3 1000 mg 120 caps">
  <defs>
    <linearGradient id="cuerpo" x1="0" y1="0" x2="1" y2="1">
      <stop offset="0%" stop-color="#945df0"/>
      <stop offset="55%" stop-color="#7c3aed"/>
      <stop offset="100%" stop-color="#4a238e"/>
    </linearGradient>
    <radialGradient id="piso" cx="0.5" cy="0.5" r="0.5">
      <stop offset="0%" stop-color="#000000" stop-opacity="0.16"/>
      <stop offset="100%" stop-color="#000000" stop-opacity="0"/>
    </radialGradient>
  </defs>

  <rect width="600" height="600" fill="#ffffff"/>
  <ellipse cx="300" cy="548" rx="180" ry="26" fill="url(#piso)"/>
  
    <rect x="215" y="128" width="170" height="56" rx="16" fill="#51269a"/>
    <path d="M198 180 h204 v300 a46 46 0 0 1 -46 46 h-112 a46 46 0 0 1 -46 -46 z" fill="url(#cuerpo)"/>
    <rect x="224" y="242" width="152" height="176" rx="10" fill="#ffffff" opacity="0.94"/>
    <rect x="224" y="242" width="152" height="30" rx="10" fill="#9d6bf2"/>
    <rect x="224" y="262" width="152" height="10" fill="#9d6bf2"/>
  

  <text x="300" y="284" text-anchor="middle" font-family="Inter, Arial, Helvetica, sans-serif" font-size="17" font-weight="800" letter-spacing="2.5" fill="#442082">NOVA NUTRITION</text>
  <text x="300" y="318" text-anchor="middle" font-family="Inter, Arial, Helvetica, sans-serif" font-size="26" font-weight="900" fill="#111111">OMEGA 3</text>
  <text x="300" y="364" text-anchor="middle" font-family="Inter, Arial, Helvetica, sans-serif" font-size="15" font-weight="700" letter-spacing="3" fill="#7c3aed">SALUD</text>
  <text x="300" y="388" text-anchor="middle" font-family="Inter, Arial, Helvetica, sans-serif" font-size="12" font-weight="600" letter-spacing="2" fill="#9ca3af">IMAGEN DE EJEMPLO</text>
</svg>
